<svg xmlns="http://www.w3.org/2000/svg" viewBox="0 0 36 36"><path fill="#DE2910" d="M32 5H4C1.791 5 0 6.791 0 9v18c0 2.209 1.791 4 4 4h28c2.209 0 4-1.791 4-4V9c0-2.209-1.791-4-4-4z"/><path fill="#FFDE00" d="M8 9l1.2 3.6H13l-3 2.2 1.1 3.5L8 16.1l-3.1 2.2L6 14.8l-3-2.2h3.8zm12.6 0l.6 1.8H23l-1.5 1.1.6 1.7-1.5-1.1-1.5 1.1.6-1.7-1.5-1.1h1.8zm3.3 4.5l.6 1.8H26l-1.5 1.1.6 1.7-1.5-1.1-1.5 1.1.6-1.7-1.5-1.1h1.8zm0 5.5l.6 1.8H26l-1.5 1.1.6 1.7-1.5-1.1-1.5 1.1.6-1.7L22.9 21h1.8zm-3.3 4l.6 1.8H23l-1.5 1.1.6 1.7-1.5-1.1-1.5 1.1.6-1.7-1.5-1.1h1.8z"/></svg>