<svg xmlns="http://www.w3.org/2000/svg" viewBox="0 0 36 36"><path fill="#138808" d="M32 5H4C1.791 5 0 6.791 0 9v18c0 2.209 1.791 4 4 4h28c2.209 0 4-1.791 4-4V9c0-2.209-1.791-4-4-4z"/><path fill="#FFF" d="M0 9v18c0 2.209 1.791 4 4 4h28c2.209 0 4-1.791 4-4V9c0-2.209-1.791-4-4-4H4C1.791 5 0 6.791 0 9z"/><path fill="#FF9933" d="M4 5C1.791 5 0 6.791 0 9v18c0 2.209 1.791 4 4 4h28c2.209 0 4-1.791 4-4V9c0-2.209-1.791-4-4-4H4z"/><path fill="#FFF" d="M0 13h36v10H0z"/><circle fill="#000080" cx="18" cy="18" r="5"/><circle fill="#FFF" cx="18" cy="18" r="4"/></svg>