<svg xmlns="http://www.w3.org/2000/svg" viewBox="0 0 36 36"><path fill="#C1694F" d="M27.843 11.9c.205-.371.39-.766.548-1.183 1.209-3.187.467-6.423-1.658-7.229-1.588-.602-3.499.326-4.868 2.164-.397-1.141-.548-2.209-.092-2.652h-8.228c.455.443.304 1.511-.093 2.652-1.369-1.838-3.28-2.766-4.868-2.164-2.125.806-2.868 4.042-1.659 7.229.158.418.344.812.548 1.183-1.184 1.166-2.157 2.879-2.157 5.563 0 6.17 8.227 13.39 9.256 15.447-.126.045 6.297.045 6.171 0C21.773 30.852 30 23.633 30 17.462c0-2.683-.973-4.396-2.157-5.562z"/><path fill="#662113" d="M18.546 31.747H16.63c-2.057 0-5.142.971-5.142 3.027 0 1.029 3.942 1.143 6.085 1.143h.032c2.143 0 6.085-.114 6.085-1.143 0-2.056-3.085-3.027-5.144-3.027z"/><path fill="#C1694F" d="M11.488 9.214c-.382.382-1.333.768-2.377 1.418-.111-.198-.214-.406-.299-.631-.617-1.624-.237-3.272.845-3.683.931-.354 2.076.329 2.772 1.559-.335.585-.673 1.069-.941 1.337zm15.017.787c-.085.225-.188.433-.299.632-1.044-.65-1.995-1.036-2.377-1.418-.268-.268-.606-.753-.94-1.337.695-1.23 1.841-1.913 2.772-1.559 1.081.41 1.461 2.058.844 3.682z"/><path fill="#E6E7E8" d="M20.357 18.418h-5.714c-.263 0-.476-.213-.476-.476v-1.905c0-.262.213-.476.476-.476h5.714c.263 0 .476.213.476.476v1.905c0 .263-.213.476-.476.476z"/><path fill="#BE1931" d="M17.5 34.917c-3.314 0-6.014-.404-6.014-2.143h12.029c-.001 1.739-2.701 2.143-6.015 2.143z"/></svg>