<svg xmlns="http://www.w3.org/2000/svg" viewBox="0 0 36 36"><path fill="#E1E8ED" d="M34 17c0 9.389-7.611 17-17 17S0 26.389 0 17 7.611 0 17 0s17 7.611 17 17z"/><path fill="#9AAAB4" d="M16 17.75h2v8.688h-2z"/><path fill="#66757F" d="M12 26.25h8v1.688h-8z"/><path fill="#C1694F" d="M10 16.25c0 1.242-1.009 2.25-2.25 2.25S5.5 17.492 5.5 16.25 6.509 14 7.75 14 10 15.008 10 16.25zm18 0c0 1.242-1.009 2.25-2.25 2.25s-2.25-1.008-2.25-2.25S24.509 14 25.75 14 28 15.008 28 16.25z"/><path fill="#BE1931" d="M17.5 18.375c-4.694 0-8.5-3.806-8.5-8.5V7.25h17v2.625c0 4.694-3.806 8.5-8.5 8.5z"/><path fill="#292F33" d="M14.25 10.375c0 .621-.504 1.125-1.125 1.125s-1.125-.504-1.125-1.125.504-1.125 1.125-1.125 1.125.503 1.125 1.125zm5.75 0c0 .621-.504 1.125-1.125 1.125S17.75 10.996 17.75 10.375s.504-1.125 1.125-1.125S20 9.754 20 10.375z"/><path fill="#66757F" d="M24 7.25H11v-4c0-1.104.896-2 2-2h9c1.104 0 2 .896 2 2v4z"/><path fill="#9AAAB4" d="M4 18.125C4 16.399 5.399 15 7.125 15H9v1.5H7.125C6.228 16.5 5.5 17.228 5.5 18.125V21H4v-2.875zm28 0C32 16.399 30.601 15 28.875 15H27v1.5h1.875c.897 0 1.625.728 1.625 1.625V21H32v-2.875z"/><path fill="#BE1931" d="M17.5 18.375S17.5 21 20 21h-5c2.5 0 2.5-2.625 2.5-2.625z"/></svg>