<svg xmlns="http://www.w3.org/2000/svg" viewBox="0 0 36 36"><path fill="#E8CDA5" d="M7.298 26.344C5.841 23.746 5 20.966 5 18c0-7.18 5.82-13 13-13s13 5.82 13 13c0 2.966-.841 5.746-2.298 8.344C26.006 26.344 10.001 26.345 7.298 26.344z"/><path fill="#C1694F" d="M31 19c-1.657 0-3-1.343-3-3s1.343-3 3-3 3 1.343 3 3-1.343 3-3 3zm-26 0c-1.657 0-3-1.343-3-3s1.343-3 3-3 3 1.343 3 3-1.343 3-3 3z"/><path fill="#E8CDA5" d="M28.965 26.344C26.898 30.877 22.849 34 18 34s-8.898-3.123-10.965-7.656h21.93z"/><path fill="#C1694F" d="M11 18c0-2.761 2.239-5 5-5s5 2.239 5 5-2.239 5-5 5-5-2.239-5-5z"/><path fill="#BE1931" d="M13.5 17.999c0-1.381 1.119-2.5 2.5-2.5s2.5 1.119 2.5 2.5-1.119 2.5-2.5 2.5-2.5-1.119-2.5-2.5z"/></svg>