<svg xmlns="http://www.w3.org/2000/svg" viewBox="0 0 36 36"><path fill="#9AAAB4" d="M17.5 1C11.149 1 6 6.149 6 12.5 6 17.313 9.038 21.383 13.293 23c-.05-.339-.293-.784-.293-2-.044-1.024.293-2.5.293-2.5l2-.5S12 16.5 12 12.5c0-3.038 2.462-5.5 5.5-5.5S23 9.462 23 12.5c0 4-3.293 5.5-3.293 5.5l2 .5s.337 1.476.293 2.5c0 1.216-.243 1.661-.293 2C25.962 21.383 29 17.313 29 12.5 29 6.149 23.851 1 17.5 1z"/><path fill="#66757F" d="M20 20.5h-5s-.294 1.5-.294 2.5L14.5 29h6l-.206-6S20 21.5 20 20.5z"/><path fill="#66757F" d="M13 29h9v4.5c0 .828-.672 1.5-1.5 1.5h-6c-.828 0-1.5-.672-1.5-1.5V29z"/><path fill="#9AAAB4" d="M21 18.5l-7 .172V20.5h7V18.5z"/></svg>