<svg xmlns="http://www.w3.org/2000/svg" viewBox="0 0 36 36"><path fill="#C1694F" d="M12.674 25.093c0 3.059 2.361 5.313 5.313 5.313 2.951 0 5.312-2.254 5.312-5.313l.024-13.081H12.65l.024 13.081z"/><path fill="#BE1931" d="M23.299 12.012H12.65v2.344h10.673z"/><path fill="#C1694F" d="M27 10.375c0 1.381-4.029 2.5-9 2.5s-9-1.119-9-2.5 4.029-2.5 9-2.5 9 1.119 9 2.5z"/><path fill="#E6E7E8" d="M18 11.688c-4.302 0-7.477-.731-8.678-1.715C10.2 11.128 13.732 12 18 12s7.8-.872 8.678-2.027C25.477 10.957 22.302 11.688 18 11.688z"/><path fill="#BE1931" d="M18 8.875c-4.971 0-9 1.119-9 2.5 0 .241.121.471.34.687C10.537 11.223 14.029 10.375 18 10.375s7.463.848 8.66 1.687c.219-.216.34-.446.34-.687 0-1.381-4.029-2.5-9-2.5z"/><path fill="#9AAAB4" d="M8.677 9.974C7.055 9.329 6 8.424 6 7.375 6 5.511 11.373 4 18 4s12 1.511 12 3.375c0 1.049-1.055 1.954-2.677 2.599C25.693 8.848 22.073 8 18 8s-7.693.848-9.323 1.974z"/><path fill="#99AAB5" d="M18 4.75c-5.799 0-10.5 1.119-10.5 2.5S12.201 9.75 18 9.75s10.5-1.119 10.5-2.5S23.799 4.75 18 4.75z"/><path fill="#C1694F" d="M17.969 26.641c-.689 0-1.25-.561-1.25-1.25v-8.063c0-.69.561-1.25 1.25-1.25s1.25.56 1.25 1.25v8.063c0 .688-.561 1.25-1.25 1.25z"/><path fill="#292F33" d="M7 9.125C5.895 9.125 5 8.229 5 7.125s.895-2 2-2 2 .895 2 2-.896 2-2 2zm22 0c-1.104 0-2-.896-2-2s.896-2 2-2 2 .895 2 2-.896 2-2 2z"/></svg>