<svg xmlns="http://www.w3.org/2000/svg" viewBox="0 0 36 36"><path fill="#66757F" d="M9.161 28.588C9.573 25.244 13 17 13 17l-5-3s1.124-4.082 5-4c2.256.047 5 2 5 2s2.744-1.953 5-2c3.876-.082 5 4 5 4l-5 3s3.427 8.244 3.839 11.588C27.553 28.924 29 30.5 29 32.5 29 34.433 27.433 36 25.5 36h-15C8.567 36 7 34.433 7 32.5c0-2 1.447-3.576 2.161-3.912z"/><path fill="#F5F8FA" d="M18 16l1 4-1 4-1-4z"/><path fill="#744EAA" d="M26.949 7.863C25.976 4.93 23.35 3 20.483 3c-1.384 0-2.748.453-3.965 1.31L15 5.625l-1.518-1.315C12.265 3.453 10.901 3 9.517 3 6.65 3 4.024 4.93 3.051 7.863L3 8.023 4.553 9.5c2.301 2.164 5.258 3.356 8.321 3.356h.5L15 14l1.625-1.144h.5c3.063 0 6.02-1.192 8.321-3.356L27 8.023l-.051-.16z"/><path fill="#9266CC" d="M25.422 8.395C24.592 5.981 22.652 4.5 20.483 4.5c-1.103 0-2.214.384-3.217 1.109L15 7.25 12.734 5.609C11.73 4.884 10.62 4.5 9.517 4.5 7.348 4.5 5.408 5.981 4.578 8.395L4 10c2.064 2.084 5.023 3.356 8.027 3.356h.5L15 15l2.474-1.644h.499C20.977 13.356 23.936 12.084 26 10l-.578-1.605z"/></svg>