<svg xmlns="http://www.w3.org/2000/svg" viewBox="0 0 36 36"><path fill="#FFAC33" d="M26 17c0 4.418-3.582 8-8 8s-8-3.582-8-8 3.582-8 8-8 8 3.582 8 8z"/><path fill="#FFCC4D" d="M18 23c-3.314 0-6-2.686-6-6s2.686-6 6-6 6 2.686 6 6-2.686 6-6 6z"/><path fill="#FFAC33" d="M11.5 14.5S9 13 9 10.5C9 8 11 7 11 7l3 3-2.5 4.5zm13 0S27 13 27 10.5C27 8 25 7 25 7l-3 3 2.5 4.5z"/><path fill="#FFCC4D" d="M11 7s-2 0-3 2-1 4-1 4l2 .5S8.5 12 9 10.5c.5-1.5 2-3.5 2-3.5zm14 0s2 0 3 2 1 4 1 4l-2 .5S27.5 12 27 10.5C26.5 9 25 7 25 7z"/><path fill="#FFAC33" d="M13.5 6.5s-1-3 .5-5c1.5-2 3.5-1.5 4 0s-1 2.5-1 4.5c0 0-2-.5-3.5.5zm9 0s1-3-.5-5c-1.5-2-3.5-1.5-4 0s1 2.5 1 4.5c0 0 2-.5 3.5.5z"/><path fill="#FFCC4D" d="M14 2.5C12.5.5 13.5 0 14.5 1.5S15.5 6 14 6.5c0 0-2-.5-3.5.5 0 0 1-3 1-5.5C13 .5 14.5.5 14 2.5zm8 0C23.5.5 22.5 0 21.5 1.5S20.5 6 22 6.5c0 0 2-.5 3.5.5 0 0-1-3-1-5.5C23 .5 21.5.5 22 2.5z"/><path fill="#292F33" d="M15.5 18c0 .828-.448 1.5-1 1.5S13.5 18.828 13.5 18s.448-1.5 1-1.5 1 .672 1 1.5zm7 0c0 .828-.448 1.5-1 1.5s-1-.672-1-1.5.448-1.5 1-1.5 1 .672 1 1.5z"/><path fill="#C1694F" d="M18 20.5c-1.326 0-2-.315-2-.5s.674-.5 2-.5 2 .315 2 .5-.674.5-2 .5z"/><path fill="#C1694F" d="M18 20c-.552 0-1-.224-1-.5s.448-.5 1-.5 1 .224 1 .5-.448.5-1 .5z"/><path fill="#FFAC33" d="M6 27c0 4.418 3.582 8 8 8h8c4.418 0 8-3.582 8-8v-5H6v5z"/><path fill="#E75A13" d="M14 35c-4.418 0-8-3.582-8-8h2c0 3.314 2.686 6 6 6h8c3.314 0 6-2.686 6-6h2c0 4.418-3.582 8-8 8h-8z"/><path fill="#FFCC4D" d="M6 22h24v4H6z"/><path fill="#292F33" d="M8 26H6v2c0 1.103.897 2 2 2s2-.897 2-2-1-2-2-2zm20 0h2v2c0 1.103-.897 2-2 2s-2-.897-2-2 1-2 2-2z"/></svg>