<svg xmlns="http://www.w3.org/2000/svg" viewBox="0 0 36 36"><path fill="#E1E8ED" d="M18 2C9.163 2 2 9.163 2 18s7.163 16 16 16 16-7.163 16-16S26.837 2 18 2z"/><path fill="#55ACEE" d="M18 4C10.268 4 4 10.268 4 18s6.268 14 14 14 14-6.268 14-14S25.732 4 18 4z"/><path fill="#E1E8ED" d="M18 8a1 1 0 0 1 1 1v8.586l5.707 5.707a1 1 0 0 1-1.414 1.414L17.586 19H9a1 1 0 0 1 0-2h8V9a1 1 0 0 1 1-1z"/><path fill="#DD2E44" d="M18 14l-2.5 4.5 2.5-1 2.5 1z"/><path fill="#CCD6DD" d="M18 7a1 1 0 0 0-1 1v1.101C17.329 9.036 17.661 9 18 9s.671.036 1 .101V8a1 1 0 0 0-1-1z"/></svg>